<mxfile host="Electron" modified="2023-07-25T14:34:33.156Z" agent="Mozilla/5.0 (Windows NT 10.0; Win64; x64) AppleWebKit/537.36 (KHTML, like Gecko) draw.io/21.6.5 Chrome/114.0.5735.243 Electron/25.3.1 Safari/537.36" etag="B_9FLKLC0AeTwhn7PV88" version="21.6.5" type="device">
  <diagram name="Страница 1" id="9AdSGZ-wU5dIfNWMVngr">
    <mxGraphModel dx="954" dy="616" grid="1" gridSize="10" guides="1" tooltips="1" connect="1" arrows="1" fold="1" page="1" pageScale="1" pageWidth="827" pageHeight="1169" math="0" shadow="0">
      <root>
        <mxCell id="0" />
        <mxCell id="1" parent="0" />
        <mxCell id="y0_Ly3QX1UwcSKQh8jFW-110" value="" style="edgeStyle=orthogonalEdgeStyle;rounded=0;orthogonalLoop=1;jettySize=auto;html=1;" parent="1" source="y0_Ly3QX1UwcSKQh8jFW-122" target="y0_Ly3QX1UwcSKQh8jFW-114" edge="1">
          <mxGeometry relative="1" as="geometry" />
        </mxCell>
        <mxCell id="y0_Ly3QX1UwcSKQh8jFW-111" value="" style="edgeStyle=orthogonalEdgeStyle;rounded=0;orthogonalLoop=1;jettySize=auto;html=1;" parent="1" source="y0_Ly3QX1UwcSKQh8jFW-112" target="y0_Ly3QX1UwcSKQh8jFW-122" edge="1">
          <mxGeometry relative="1" as="geometry" />
        </mxCell>
        <mxCell id="y0_Ly3QX1UwcSKQh8jFW-112" value="start" style="ellipse;whiteSpace=wrap;html=1;labelBackgroundColor=none;" parent="1" vertex="1">
          <mxGeometry x="286" y="43" width="120" height="80" as="geometry" />
        </mxCell>
        <mxCell id="y0_Ly3QX1UwcSKQh8jFW-113" value="" style="edgeStyle=orthogonalEdgeStyle;rounded=0;orthogonalLoop=1;jettySize=auto;html=1;" parent="1" source="y0_Ly3QX1UwcSKQh8jFW-114" target="y0_Ly3QX1UwcSKQh8jFW-127" edge="1">
          <mxGeometry relative="1" as="geometry" />
        </mxCell>
        <mxCell id="y0_Ly3QX1UwcSKQh8jFW-114" value="int[] arr= {1 ,2, 3}" style="shape=parallelogram;perimeter=parallelogramPerimeter;whiteSpace=wrap;html=1;fixedSize=1;labelBackgroundColor=none;" parent="1" vertex="1">
          <mxGeometry x="286" y="203" width="120" height="40" as="geometry" />
        </mxCell>
        <mxCell id="y0_Ly3QX1UwcSKQh8jFW-115" value="" style="edgeStyle=orthogonalEdgeStyle;rounded=0;orthogonalLoop=1;jettySize=auto;html=1;" parent="1" source="y0_Ly3QX1UwcSKQh8jFW-116" target="y0_Ly3QX1UwcSKQh8jFW-118" edge="1">
          <mxGeometry relative="1" as="geometry" />
        </mxCell>
        <mxCell id="y0_Ly3QX1UwcSKQh8jFW-116" value="i = 0" style="rounded=0;whiteSpace=wrap;html=1;" parent="1" vertex="1">
          <mxGeometry x="286" y="420" width="120" height="27" as="geometry" />
        </mxCell>
        <mxCell id="y0_Ly3QX1UwcSKQh8jFW-117" value="" style="edgeStyle=orthogonalEdgeStyle;rounded=0;orthogonalLoop=1;jettySize=auto;html=1;" parent="1" source="y0_Ly3QX1UwcSKQh8jFW-118" target="y0_Ly3QX1UwcSKQh8jFW-134" edge="1">
          <mxGeometry relative="1" as="geometry" />
        </mxCell>
        <mxCell id="y0_Ly3QX1UwcSKQh8jFW-118" value="i&amp;lt; length/2" style="rhombus;whiteSpace=wrap;html=1;rounded=0;" parent="1" vertex="1">
          <mxGeometry x="273" y="490" width="146" height="80" as="geometry" />
        </mxCell>
        <mxCell id="y0_Ly3QX1UwcSKQh8jFW-119" value="конец цикла" style="text;html=1;strokeColor=none;fillColor=none;align=center;verticalAlign=middle;whiteSpace=wrap;rounded=0;" parent="1" vertex="1">
          <mxGeometry x="420" y="490" width="60" height="30" as="geometry" />
        </mxCell>
        <mxCell id="y0_Ly3QX1UwcSKQh8jFW-120" value="выполнение цикла" style="text;html=1;strokeColor=none;fillColor=none;align=center;verticalAlign=middle;whiteSpace=wrap;rounded=0;" parent="1" vertex="1">
          <mxGeometry x="380" y="560" width="60" height="30" as="geometry" />
        </mxCell>
        <mxCell id="y0_Ly3QX1UwcSKQh8jFW-121" value="" style="edgeStyle=orthogonalEdgeStyle;rounded=0;orthogonalLoop=1;jettySize=auto;html=1;" parent="1" source="y0_Ly3QX1UwcSKQh8jFW-112" target="y0_Ly3QX1UwcSKQh8jFW-122" edge="1">
          <mxGeometry relative="1" as="geometry">
            <mxPoint x="346" y="123" as="sourcePoint" />
            <mxPoint x="346" y="203" as="targetPoint" />
          </mxGeometry>
        </mxCell>
        <mxCell id="y0_Ly3QX1UwcSKQh8jFW-122" value="int[] arr" style="whiteSpace=wrap;html=1;labelBackgroundColor=none;" parent="1" vertex="1">
          <mxGeometry x="286" y="153" width="120" height="23" as="geometry" />
        </mxCell>
        <mxCell id="y0_Ly3QX1UwcSKQh8jFW-123" style="edgeStyle=orthogonalEdgeStyle;rounded=0;orthogonalLoop=1;jettySize=auto;html=1;entryX=0;entryY=0.5;entryDx=0;entryDy=0;" parent="1" source="y0_Ly3QX1UwcSKQh8jFW-124" target="y0_Ly3QX1UwcSKQh8jFW-118" edge="1">
          <mxGeometry relative="1" as="geometry">
            <Array as="points">
              <mxPoint x="180" y="860" />
              <mxPoint x="180" y="530" />
            </Array>
          </mxGeometry>
        </mxCell>
        <mxCell id="y0_Ly3QX1UwcSKQh8jFW-124" value="i++" style="whiteSpace=wrap;html=1;rounded=0;" parent="1" vertex="1">
          <mxGeometry x="286" y="830" width="120" height="60" as="geometry" />
        </mxCell>
        <mxCell id="y0_Ly3QX1UwcSKQh8jFW-125" value="end" style="ellipse;whiteSpace=wrap;html=1;rounded=0;" parent="1" vertex="1">
          <mxGeometry x="610" y="700" width="80" height="80" as="geometry" />
        </mxCell>
        <mxCell id="y0_Ly3QX1UwcSKQh8jFW-126" value="" style="edgeStyle=orthogonalEdgeStyle;rounded=0;orthogonalLoop=1;jettySize=auto;html=1;" parent="1" source="y0_Ly3QX1UwcSKQh8jFW-127" target="y0_Ly3QX1UwcSKQh8jFW-129" edge="1">
          <mxGeometry relative="1" as="geometry" />
        </mxCell>
        <mxCell id="y0_Ly3QX1UwcSKQh8jFW-127" value="int length" style="whiteSpace=wrap;html=1;labelBackgroundColor=none;" parent="1" vertex="1">
          <mxGeometry x="286" y="260" width="120" height="40" as="geometry" />
        </mxCell>
        <mxCell id="y0_Ly3QX1UwcSKQh8jFW-128" value="" style="edgeStyle=orthogonalEdgeStyle;rounded=0;orthogonalLoop=1;jettySize=auto;html=1;" parent="1" source="y0_Ly3QX1UwcSKQh8jFW-129" target="y0_Ly3QX1UwcSKQh8jFW-116" edge="1">
          <mxGeometry relative="1" as="geometry" />
        </mxCell>
        <mxCell id="y0_Ly3QX1UwcSKQh8jFW-129" value="int length = arr.length" style="shape=parallelogram;perimeter=parallelogramPerimeter;whiteSpace=wrap;html=1;fixedSize=1;" parent="1" vertex="1">
          <mxGeometry x="286" y="320" width="144" height="40" as="geometry" />
        </mxCell>
        <mxCell id="y0_Ly3QX1UwcSKQh8jFW-130" value="" style="edgeStyle=orthogonalEdgeStyle;rounded=0;orthogonalLoop=1;jettySize=auto;html=1;" parent="1" source="y0_Ly3QX1UwcSKQh8jFW-118" edge="1">
          <mxGeometry relative="1" as="geometry">
            <mxPoint x="650" y="560" as="targetPoint" />
            <mxPoint x="419" y="530" as="sourcePoint" />
            <Array as="points">
              <mxPoint x="650" y="530" />
            </Array>
          </mxGeometry>
        </mxCell>
        <mxCell id="y0_Ly3QX1UwcSKQh8jFW-131" value="" style="edgeStyle=orthogonalEdgeStyle;rounded=0;orthogonalLoop=1;jettySize=auto;html=1;entryX=0.5;entryY=0;entryDx=0;entryDy=0;" parent="1" source="y0_Ly3QX1UwcSKQh8jFW-132" edge="1">
          <mxGeometry relative="1" as="geometry">
            <mxPoint x="650" y="700" as="targetPoint" />
          </mxGeometry>
        </mxCell>
        <mxCell id="y0_Ly3QX1UwcSKQh8jFW-132" value="print arr" style="shape=document;whiteSpace=wrap;html=1;boundedLbl=1;size=0.5294117647058824;" parent="1" vertex="1">
          <mxGeometry x="590" y="560" width="120" height="80" as="geometry" />
        </mxCell>
        <mxCell id="y0_Ly3QX1UwcSKQh8jFW-133" value="" style="edgeStyle=orthogonalEdgeStyle;rounded=0;orthogonalLoop=1;jettySize=auto;html=1;" parent="1" source="y0_Ly3QX1UwcSKQh8jFW-138" target="y0_Ly3QX1UwcSKQh8jFW-124" edge="1">
          <mxGeometry relative="1" as="geometry" />
        </mxCell>
        <mxCell id="y0_Ly3QX1UwcSKQh8jFW-134" value="int temp = arr[i]" style="whiteSpace=wrap;html=1;rounded=0;" parent="1" vertex="1">
          <mxGeometry x="286" y="600" width="120" height="30" as="geometry" />
        </mxCell>
        <mxCell id="y0_Ly3QX1UwcSKQh8jFW-135" value="" style="edgeStyle=orthogonalEdgeStyle;rounded=0;orthogonalLoop=1;jettySize=auto;html=1;" parent="1" source="y0_Ly3QX1UwcSKQh8jFW-134" target="y0_Ly3QX1UwcSKQh8jFW-136" edge="1">
          <mxGeometry relative="1" as="geometry">
            <mxPoint x="346" y="630" as="sourcePoint" />
            <mxPoint x="346" y="720" as="targetPoint" />
          </mxGeometry>
        </mxCell>
        <mxCell id="y0_Ly3QX1UwcSKQh8jFW-136" value="arr[i] = arr[length - i -1]" style="rounded=0;whiteSpace=wrap;html=1;" parent="1" vertex="1">
          <mxGeometry x="254" y="690" width="184" height="30" as="geometry" />
        </mxCell>
        <mxCell id="y0_Ly3QX1UwcSKQh8jFW-137" value="" style="edgeStyle=orthogonalEdgeStyle;rounded=0;orthogonalLoop=1;jettySize=auto;html=1;" parent="1" source="y0_Ly3QX1UwcSKQh8jFW-136" target="y0_Ly3QX1UwcSKQh8jFW-138" edge="1">
          <mxGeometry relative="1" as="geometry">
            <mxPoint x="346" y="720" as="sourcePoint" />
            <mxPoint x="346" y="830" as="targetPoint" />
          </mxGeometry>
        </mxCell>
        <mxCell id="y0_Ly3QX1UwcSKQh8jFW-138" value="arr[length - i - 1] = temp" style="rounded=0;whiteSpace=wrap;html=1;" parent="1" vertex="1">
          <mxGeometry x="254" y="760" width="186" height="30" as="geometry" />
        </mxCell>
      </root>
    </mxGraphModel>
  </diagram>
</mxfile>
